<?xml version="1.0" standalone="no"?>
<!DOCTYPE svg PUBLIC "-//W3C//DTD SVG 20010904//EN"
 "http://www.w3.org/TR/2001/REC-SVG-20010904/DTD/svg10.dtd">
<svg version="1.0" xmlns="http://www.w3.org/2000/svg"
 width="500.000000pt" height="500.000000pt" viewBox="0 0 500.000000 500.000000"
 preserveAspectRatio="xMidYMid meet">

<g transform="translate(0.000000,500.000000) scale(0.100000,-0.100000)"
fill="#000000" stroke="none">
<path d="M3385 3881 l-70 -6 -5 -412 c-3 -226 -2 -409 1 -407 3 2 25 -13 48
-33 38 -32 42 -40 37 -67 -15 -72 -47 -116 -126 -171 -58 -41 -105 -88 -186
-186 -107 -128 -110 -130 -143 -125 -71 11 -201 -71 -201 -126 0 -16 -5 -38
-11 -49 -7 -15 -6 -28 5 -51 9 -17 16 -35 16 -40 0 -6 -166 -210 -221 -272 -5
-6 -9 23 -9 66 0 73 1 76 26 82 36 9 83 46 100 78 18 34 18 115 0 148 -13 22
-12 25 7 35 12 6 23 19 25 29 3 16 -1 15 -30 -8 -33 -24 -35 -25 -59 -9 -13
10 -29 24 -35 32 -6 8 -18 12 -27 8 -22 -8 -25 23 -33 326 l-6 257 66 0 c42 0
65 4 61 10 -3 6 -31 10 -61 10 -30 0 -54 2 -54 5 0 2 7 30 15 62 8 31 15 72
15 91 0 36 -24 127 -40 152 -19 30 -19 2 0 -48 24 -63 25 -122 4 -207 -13 -50
-21 -65 -35 -65 -10 0 -21 -4 -24 -10 -3 -5 3 -10 14 -10 24 0 28 -35 36 -357
l6 -232 -27 -18 c-15 -9 -33 -32 -40 -50 -8 -18 -19 -33 -24 -33 -17 0 -12
-60 5 -67 9 -3 25 -24 37 -47 11 -22 29 -51 40 -62 16 -18 18 -33 16 -92 l-3
-71 -102 92 -101 92 -1 63 c-1 52 -4 62 -18 62 -10 0 -27 3 -39 6 -19 5 -20 2
-16 -27 l5 -32 -29 21 c-16 11 -49 41 -74 66 -42 44 -43 46 -19 46 37 0 112
63 143 119 28 52 33 104 14 145 -11 25 -79 66 -110 66 -17 0 -28 20 -28 53 0
39 -14 50 -55 43 -37 -7 -37 -8 -32 -44 3 -20 8 -44 11 -52 4 -10 -9 -24 -40
-42 -27 -17 -57 -47 -76 -78 l-31 -50 -26 22 c-95 85 -136 128 -153 163 -34
66 -87 123 -138 148 l-49 25 102 99 c92 89 214 183 238 183 11 0 58 -72 83
-128 16 -36 36 -56 36 -36 0 19 -57 133 -77 155 l-24 26 35 21 c19 11 66 34
103 51 37 17 62 31 54 31 -31 0 -231 -88 -309 -137 -46 -29 -86 -53 -88 -53
-2 0 -4 179 -4 398 l0 397 -222 -2 c-123 -1 -272 -7 -333 -13 -60 -5 -202 -17
-315 -26 -249 -18 -327 -29 -450 -59 -72 -18 -100 -30 -117 -50 -79 -91 47
-157 377 -200 150 -19 173 -27 168 -58 -2 -17 -21 -29 -93 -59 -98 -40 -135
-72 -135 -118 0 -39 20 -51 159 -91 63 -18 125 -42 139 -54 25 -22 25 -22 9
-64 -9 -23 -17 -59 -17 -80 0 -50 -22 -75 -86 -95 -76 -25 -88 -42 -88 -132
-1 -87 -14 -105 -89 -125 -84 -22 -107 -36 -107 -67 0 -56 57 -102 127 -102
21 0 79 -7 130 -15 70 -11 98 -12 117 -4 34 16 76 4 76 -21 0 -31 -32 -42 -66
-21 -28 17 -29 17 -47 -6 -11 -13 -36 -32 -58 -43 -53 -28 -73 -60 -65 -108 3
-21 2 -52 -3 -69 -16 -54 2 -62 109 -49 117 14 193 -41 164 -119 -9 -23 -50
-41 -124 -55 -103 -20 -130 -47 -96 -96 8 -11 19 -38 25 -61 9 -34 20 -47 61
-72 39 -24 51 -38 59 -69 12 -41 51 -85 91 -100 14 -5 69 -13 123 -17 93 -7
99 -6 93 11 -13 43 -35 164 -41 230 l-7 72 49 16 c84 27 128 30 207 11 52 -12
100 -16 160 -13 79 4 84 3 75 -13 -5 -10 -14 -21 -19 -24 -16 -10 -12 -32 7
-39 18 -7 89 37 104 66 7 13 21 18 53 18 l44 0 -5 -60 -6 -60 42 -40 c23 -22
50 -40 61 -40 21 0 149 62 183 88 12 10 48 43 79 74 l57 56 126 4 c69 2 125 1
125 -1 0 -2 -44 -55 -97 -119 -54 -63 -116 -137 -138 -165 -172 -213 -197
-239 -213 -223 -9 8 -18 35 -21 58 -7 51 -29 65 -120 74 -88 10 -144 -13 -165
-67 -9 -22 -14 -50 -11 -62 3 -12 7 -39 9 -60 2 -22 12 -48 24 -59 38 -38 123
-18 177 42 22 25 37 25 52 2 9 -16 -1 -32 -67 -111 -43 -51 -80 -95 -83 -98
-3 -3 -31 18 -62 47 -30 29 -58 50 -61 47 -4 -3 18 -31 49 -60 l55 -55 -98
-118 c-92 -111 -121 -157 -67 -106 13 12 27 19 32 15 4 -5 5 -3 2 4 -4 6 30
57 78 115 47 56 120 145 162 196 l77 93 18 -23 17 -23 27 26 c24 25 25 29 13
62 -12 34 -12 35 46 103 108 129 134 154 151 147 13 -5 15 -2 10 13 -6 20 14
47 154 216 58 71 70 72 70 6 0 -26 -8 -45 -25 -64 -34 -37 -67 -108 -72 -157
-5 -53 21 -97 71 -121 32 -15 36 -21 36 -54 0 -26 -6 -41 -20 -50 -25 -15 -26
-49 -1 -57 22 -7 29 -66 33 -280 l2 -139 -74 -18 c-352 -82 -557 -124 -566
-115 -8 8 23 62 58 102 38 44 29 59 -13 19 -32 -30 -69 -93 -69 -117 0 -16
-120 -41 -270 -58 -107 -11 -198 -7 -327 16 l-73 12 0 -248 0 -247 48 -11
c193 -41 578 -40 847 3 232 37 384 69 705 146 683 164 855 192 1225 194 249 1
325 -6 325 -30 0 -12 -7 -14 -27 -10 -131 29 -143 26 -143 -35 0 -28 -6 -33
-81 -66 l-82 -37 109 -22 c125 -25 275 -72 370 -115 36 -16 64 -26 62 -21 -37
77 -41 82 -97 98 -31 9 -98 24 -149 34 -52 10 -95 20 -98 22 -2 3 34 22 81 44
l86 39 -4 39 -3 38 51 -6 50 -6 0 247 0 247 -60 12 c-176 35 -398 42 -639 19
-269 -26 -441 -59 -971 -186 -490 -118 -737 -161 -1025 -179 -168 -10 -224 -8
-103 4 303 30 566 78 978 177 382 93 624 144 798 169 151 23 187 33 95 29 -53
-2 -59 0 -96 33 -22 20 -38 39 -36 42 2 3 1 4 -2 1 -4 -2 -29 7 -57 22 -53 26
-493 425 -555 502 -18 23 -39 41 -45 41 -7 0 -59 43 -115 95 l-102 95 80 0
c79 0 80 0 80 -25 0 -39 41 -30 54 12 7 21 13 23 124 25 l117 3 35 -36 c39
-41 108 -67 200 -76 50 -5 59 -3 87 21 31 26 48 77 31 94 -13 13 221 26 235
13 7 -5 37 -16 68 -25 60 -18 110 -12 186 19 20 8 37 15 39 15 9 0 2 -163 -10
-240 -25 -148 -73 -313 -89 -303 -6 3 -7 1 -3 -5 4 -7 -2 -33 -14 -59 l-20
-47 -35 37 c-34 36 -95 74 -95 59 0 -4 24 -28 54 -52 30 -25 57 -50 60 -57 3
-7 -6 -32 -20 -56 l-24 -44 37 -7 c21 -3 104 -6 185 -6 l147 0 22 33 c32 44
44 54 115 86 34 16 64 37 68 46 3 10 3 45 0 80 -7 65 1 90 38 131 15 17 19 33
16 80 -3 56 -2 59 27 73 25 12 45 13 125 3 194 -24 230 -14 230 67 0 27 -7 65
-16 86 -14 34 -14 39 1 55 8 9 33 22 55 29 21 6 42 16 46 22 9 15 -16 29 -41
24 -11 -2 -46 -6 -78 -9 -64 -7 -84 9 -53 43 10 11 16 35 16 65 0 42 4 52 31
75 76 64 89 80 89 109 0 84 -43 122 -139 122 l-62 0 -68 64 c-60 56 -75 65
-117 70 -105 13 -119 19 -122 49 -3 23 2 30 30 41 18 7 59 17 91 21 53 6 87
24 87 46 0 25 -43 90 -68 102 -17 9 -81 17 -176 21 -158 7 -196 17 -196 55 0
21 3 22 130 42 113 17 114 18 106 98 -7 82 3 100 62 108 65 9 69 29 23 101
-43 67 -63 77 -126 68 -54 -9 -195 19 -212 42 -7 8 -13 35 -13 58 0 69 -39 90
-188 103 -40 3 -73 11 -75 16 -3 13 144 33 245 34 100 1 125 12 144 58 27 69
37 82 65 92 16 5 44 25 63 44 19 19 54 41 78 49 35 12 44 20 46 41 6 47 -38
57 -250 57 -100 0 -230 -5 -288 -11 -102 -12 -107 -11 -181 15 -77 26 -103 28
-244 17z m201 -1092 c60 -80 162 -250 165 -276 1 -5 9 -24 19 -43 10 -19 27
-66 39 -104 l21 -69 -22 -19 c-41 -36 -81 -51 -135 -50 -64 0 -70 -14 -10 -23
50 -8 107 12 148 51 l26 25 12 -58 c18 -91 31 -185 31 -225 0 -35 -2 -37 -53
-57 -89 -33 -117 -35 -185 -12 -48 17 -86 21 -180 21 l-120 0 -27 54 c-15 30
-42 69 -61 87 -30 30 -32 34 -20 58 16 32 40 120 35 126 -3 2 -29 5 -59 7
l-54 3 -8 -40 c-4 -22 -10 -57 -13 -77 -4 -28 -14 -41 -40 -57 -35 -20 -77
-89 -89 -148 l-7 -32 -120 -3 -119 -3 0 33 c0 29 -3 32 -30 32 -28 0 -30 -3
-30 -35 l0 -35 -80 0 -80 0 112 134 112 135 37 -20 c21 -10 48 -19 60 -19 34
0 99 43 152 100 45 48 48 56 42 89 -3 20 -19 55 -36 79 l-29 43 62 76 c35 42
81 98 103 124 22 27 73 71 114 99 97 67 113 88 146 197 4 13 124 -105 171
-168z m-1991 2 c22 -14 59 -55 83 -90 l42 -63 -37 -47 -38 -48 -16 36 c-16 36
-90 111 -109 111 -15 0 -14 -2 44 -62 55 -57 78 -110 57 -131 -6 -6 -11 -15
-11 -19 0 -5 28 21 61 57 34 36 66 65 73 65 18 -1 154 -137 146 -147 -4 -4 -6
-23 -3 -41 6 -39 43 -62 98 -62 37 0 59 -16 183 -134 47 -45 52 -55 52 -93 0
-24 1 -43 3 -43 1 0 17 4 36 10 33 9 36 8 130 -77 53 -48 98 -90 99 -95 2 -4
-51 -8 -117 -8 -67 0 -124 0 -128 0 -5 -1 -11 15 -14 35 -7 43 -51 92 -94 104
-44 12 -139 -3 -174 -28 -34 -24 -111 -109 -111 -122 0 -5 -19 -9 -42 -9 -39
0 -40 1 -25 18 25 28 21 39 -19 47 -31 5 -41 2 -65 -21 -16 -15 -29 -33 -29
-40 0 -19 -192 -24 -243 -7 -65 23 -173 20 -230 -5 l-48 -21 7 70 c13 134 12
132 79 148 33 7 67 16 75 19 27 11 -58 14 -94 4 -33 -10 -34 -9 -30 17 12 65
48 190 77 267 31 84 31 84 68 84 19 0 58 -11 84 -25 27 -13 51 -23 53 -20 17
17 -74 64 -125 65 -18 0 -33 2 -33 5 0 9 40 87 77 147 31 53 36 56 58 48 28
-11 32 -4 10 20 -13 14 -10 22 23 67 42 58 51 59 117 14z m1126 -1080 c20 -14
20 -14 -2 -37 l-21 -22 -55 54 c-30 31 -67 57 -83 60 -31 7 -40 25 -40 88 l0
38 91 -83 c50 -46 99 -90 110 -98z m280 -256 c89 -82 192 -178 228 -213 l66
-63 -62 -57 c-70 -65 -82 -85 -26 -48 35 24 37 25 65 8 44 -26 34 -39 -34 -46
-35 -4 -102 -16 -150 -27 -93 -20 -128 -24 -90 -9 37 15 103 73 119 104 20 38
9 90 -24 116 -22 17 -35 20 -82 14 -44 -4 -66 -1 -104 15 -78 34 -113 24 -132
-37 -6 -21 -11 -23 -41 -17 -40 7 -48 -4 -36 -50 7 -24 17 -33 50 -44 29 -9
47 -22 57 -41 17 -33 87 -70 136 -71 l34 -1 -35 -9 c-19 -5 -107 -25 -195 -45
-88 -19 -168 -38 -177 -40 -16 -5 -18 2 -18 55 0 51 3 61 20 66 25 8 26 29 1
22 -16 -4 -19 3 -25 47 -7 64 -8 196 0 196 3 0 20 -11 38 -25 l34 -25 6 22
c12 47 7 58 -39 80 -44 21 -45 23 -45 68 l0 47 55 13 c64 15 115 44 122 68 4
16 100 81 114 78 4 0 80 -68 170 -151z m369 -316 c32 -17 68 -41 79 -53 l22
-23 -62 -7 c-58 -6 -63 -4 -96 24 -18 17 -38 30 -44 30 -5 0 0 14 13 30 12 17
24 30 26 30 2 0 30 -14 62 -31z m420 -157 c0 -10 -16 -34 -37 -53 l-36 -34 22
33 22 32 -34 0 c-47 0 -62 -20 -102 -140 -42 -126 -44 -145 -12 -129 19 10 19
8 -5 -17 -26 -26 -29 -27 -44 -12 -16 15 -15 23 11 105 44 143 73 186 145 217
47 21 70 20 70 -2z m-53 -118 c3 -9 -4 -45 -17 -80 -23 -67 -22 -86 5 -64 9 7
15 8 15 2 0 -6 -12 -20 -27 -32 -23 -18 -28 -19 -41 -6 -13 12 -12 22 7 77 28
83 28 98 0 73 -22 -19 -22 -19 -10 3 11 21 37 42 54 43 4 0 10 -7 14 -16z
m-679 -16 c-3 -7 -22 -15 -44 -18 -48 -6 -56 -21 -98 -181 -17 -64 -35 -118
-40 -120 -5 -2 -27 49 -49 115 l-39 118 -28 -83 c-48 -151 -91 -209 -152 -209
-16 0 -38 -4 -48 -10 -26 -14 -43 11 -35 52 7 32 6 31 -23 -14 -51 -78 -92
-83 -92 -11 0 44 31 104 70 137 24 19 43 26 76 26 24 0 44 -3 44 -7 0 -5 -9
-32 -20 -61 -11 -29 -20 -61 -20 -72 0 -20 14 -27 24 -11 3 4 16 6 30 4 36 -7
63 13 90 65 20 40 33 77 72 200 5 15 -55 7 -98 -13 -26 -13 -27 -12 -18 6 14
26 38 37 97 45 l51 6 38 -116 38 -115 28 101 c32 112 51 151 82 167 30 14 69
14 64 -1z m473 -41 c17 -37 -6 -105 -51 -149 -41 -41 -60 -46 -84 -22 -32 32
-13 108 42 167 33 35 78 37 93 4z m-175 -33 c17 -68 -65 -189 -123 -182 -26 3
-29 -1 -48 -56 -19 -56 -45 -86 -45 -52 0 9 16 70 36 136 20 67 34 123 31 127
-4 3 -14 0 -24 -8 -17 -13 -17 -13 -2 11 9 14 26 27 39 28 21 3 22 1 18 -38
-4 -41 -3 -42 12 -19 53 81 94 101 106 53z m-812 -29 c-7 -17 -42 -28 -72 -23
-36 6 -61 -32 -99 -149 -20 -62 -33 -116 -29 -120 4 -4 17 -1 29 6 21 13 21
12 -2 -13 -35 -38 -61 -35 -61 7 0 40 41 166 70 212 l20 33 -23 4 c-34 7 -46
0 -66 -40 -25 -49 -76 -221 -68 -229 4 -3 13 0 22 7 20 17 19 1 -2 -22 -21
-23 -50 -23 -57 0 -7 20 33 151 63 211 11 21 36 52 55 69 33 29 95 50 113 39
5 -3 19 1 33 9 35 19 81 19 74 -1z m606 12 c0 -2 -9 -30 -20 -62 -11 -32 -20
-69 -20 -82 0 -21 2 -23 23 -12 20 10 19 9 -5 -16 -36 -38 -62 -28 -56 22 4
36 4 36 -11 12 -59 -90 -101 -102 -101 -29 0 67 44 136 100 159 24 9 90 15 90
8z m-1128 -131 c9 -20 7 -31 -10 -60 -17 -28 -18 -35 -6 -40 9 -3 14 -20 14
-46 0 -32 -7 -48 -37 -81 -45 -50 -75 -66 -147 -77 -44 -7 -56 -6 -56 4 0 7 4
16 10 19 5 3 24 52 41 108 17 56 38 114 45 129 l14 28 -32 -7 c-18 -3 -39 -10
-45 -16 -19 -14 -16 8 2 27 9 8 32 18 53 21 20 4 42 8 47 10 6 2 29 4 53 4 36
1 44 -3 54 -23z m176 -69 c2 -10 -18 -39 -54 -75 -47 -47 -50 -49 -20 -13 38
47 49 95 20 89 -44 -8 -78 -106 -50 -143 14 -19 16 -19 45 -3 21 11 28 13 25
3 -3 -7 -21 -21 -40 -31 -92 -50 -101 85 -11 169 34 32 80 34 85 4z"/>
<path d="M3455 2700 c-4 -6 -24 -20 -47 -31 -49 -25 -42 -37 11 -19 23 7 43
22 50 36 10 23 -1 35 -14 14z"/>
<path d="M3590 2659 c-16 -19 -45 -37 -78 -48 -64 -22 -75 -31 -36 -31 61 1
150 59 142 94 -2 12 -9 8 -28 -15z"/>
<path d="M3227 2602 c-56 -62 -44 -162 25 -198 63 -33 128 2 128 70 l0 41 20
-25 c34 -45 108 -193 126 -255 10 -34 20 -52 22 -42 17 78 -154 380 -234 413
-44 19 -68 18 -87 -4z"/>
<path d="M3140 2508 c0 -35 23 -87 51 -116 45 -46 58 -40 16 7 -20 22 -39 56
-43 76 -6 34 -24 59 -24 33z"/>
<path d="M3130 2448 c0 -9 5 -20 10 -23 13 -8 13 5 0 25 -8 13 -10 13 -10 -2z"/>
<path d="M3638 2357 c-54 -12 -64 -27 -18 -27 31 0 100 24 100 34 0 8 -25 6
-82 -7z"/>
<path d="M3300 2330 c36 -12 88 -12 95 0 4 6 -17 10 -57 9 -47 -1 -57 -3 -38
-9z"/>
<path d="M3316 2301 c5 -5 23 -12 39 -16 29 -6 29 -6 11 9 -21 17 -67 23 -50
7z"/>
<path d="M3071 2217 c-1 -10 -26 -45 -58 -78 -66 -69 -66 -87 -1 -29 46 40 74
89 65 112 -3 8 -6 6 -6 -5z"/>
<path d="M3420 2201 c0 -5 4 -11 9 -13 5 -1 18 -19 30 -38 20 -34 21 -34 21
-9 0 14 -10 35 -23 47 -25 23 -37 28 -37 13z"/>
<path d="M3621 2171 c-9 -6 -10 -11 -2 -15 14 -9 51 2 51 15 0 11 -30 12 -49
0z"/>
<path d="M2975 2130 c-21 -22 -36 -42 -34 -45 3 -2 23 13 44 35 21 22 36 42
34 45 -3 2 -23 -13 -44 -35z"/>
<path d="M3402 2110 c-20 -32 -14 -46 10 -22 15 14 19 25 12 32 -6 6 -14 3
-22 -10z"/>
<path d="M2852 2075 c-14 -30 -15 -94 -3 -114 5 -8 10 14 13 60 3 41 4 75 3
77 -1 1 -7 -9 -13 -23z"/>
<path d="M2816 2047 c-5 -15 -6 -31 -2 -34 11 -11 18 5 14 34 l-4 28 -8 -28z"/>
<path d="M1830 2440 c0 -11 5 -20 10 -20 6 0 10 9 10 20 0 11 -4 20 -10 20 -5
0 -10 -9 -10 -20z"/>
<path d="M1670 2401 c-19 -11 -46 -32 -60 -47 l-25 -28 30 19 c60 37 105 68
105 71 0 8 -16 3 -50 -15z"/>
<path d="M1679 2371 c-35 -28 -20 -31 26 -5 31 18 35 24 19 24 -12 0 -32 -9
-45 -19z"/>
<path d="M1501 2250 c-32 -104 -57 -260 -42 -260 4 0 11 21 15 48 6 48 49 233
61 265 4 9 3 17 -3 17 -6 0 -20 -32 -31 -70z"/>
<path d="M1690 2308 c-68 -25 -124 -131 -100 -189 18 -43 47 -45 131 -9 62 28
76 31 93 20 57 -36 89 -30 116 20 12 22 8 25 -42 34 -34 6 -38 10 -38 37 0 36
-49 89 -84 90 -11 0 -28 2 -36 3 -8 2 -26 -1 -40 -6z"/>
<path d="M1270 2228 c-61 -17 -53 -25 27 -24 43 1 88 -3 101 -7 32 -12 28 8
-5 21 -46 18 -86 21 -123 10z"/>
<path d="M2016 2204 c-7 -18 0 -34 15 -34 5 0 9 11 9 25 0 28 -15 34 -24 9z"/>
<path d="M2075 2160 c3 -5 -3 -15 -15 -22 -26 -16 -26 -28 0 -21 34 9 48 53
18 53 -5 0 -6 -4 -3 -10z"/>
<path d="M2256 2027 c20 -35 47 -68 51 -63 7 7 -29 65 -44 71 -9 3 -11 0 -7
-8z"/>
<path d="M2250 1980 c0 -5 5 -10 11 -10 5 0 7 5 4 10 -3 6 -8 10 -11 10 -2 0
-4 -4 -4 -10z"/>
<path d="M2758 1418 c-4 -30 23 -51 92 -71 60 -18 71 -13 84 30 6 19 2 23 -21
29 -15 3 -45 12 -66 20 -56 21 -85 18 -89 -8z"/>
<path d="M2633 1180 c0 -30 2 -43 4 -27 2 15 2 39 0 55 -2 15 -4 2 -4 -28z"/>
<path d="M2730 1035 c0 -11 77 -55 98 -55 18 0 9 8 -33 30 -59 31 -65 33 -65
25z"/>
<path d="M2710 1013 c0 -12 38 -48 45 -41 3 2 -6 15 -20 28 -14 13 -25 19 -25
13z"/>
<path d="M2487 618 c-35 -27 -62 -138 -37 -153 13 -8 110 131 110 160 0 10
-57 5 -73 -7z"/>
<path d="M3441 791 c-11 -11 -23 -36 -27 -56 -14 -75 39 -116 71 -55 20 40 20
116 -1 124 -22 8 -22 8 -43 -13z"/>
<path d="M3266 723 c-43 -57 -54 -92 -35 -104 35 -22 72 7 89 71 23 86 -4 102
-54 33z"/>
<path d="M3027 712 c-32 -35 -52 -142 -27 -142 12 0 64 70 91 123 l19 37 -33
0 c-20 0 -41 -7 -50 -18z"/>
<path d="M1912 595 c-6 -13 -23 -64 -37 -111 -13 -48 -32 -98 -41 -112 l-16
-24 44 7 c97 15 141 61 124 129 -6 23 -12 26 -49 27 l-42 1 40 12 c73 22 85
96 15 96 -19 0 -30 -7 -38 -25z"/>
<path d="M2631 3248 c4 -29 8 -63 8 -76 1 -13 5 -20 11 -17 20 12 6 135 -16
142 -7 2 -8 -14 -3 -49z"/>
<path d="M2150 3245 c30 -22 56 -55 96 -121 7 -11 15 -16 19 -12 4 4 -5 29
-21 57 -29 54 -81 101 -110 101 -13 0 -8 -7 16 -25z"/>
<path d="M2900 3208 c0 -24 -7 -68 -15 -98 -20 -76 -18 -92 7 -45 24 46 37
168 19 179 -7 5 -11 -7 -11 -36z"/>
<path d="M2816 3104 c-16 -66 -16 -98 -1 -83 6 7 35 121 35 141 0 42 -18 12
-34 -58z"/>
<path d="M2080 3133 c0 -6 14 -41 31 -77 17 -37 32 -80 33 -96 1 -28 -4 -32
-78 -65 -44 -19 -81 -34 -82 -32 -1 1 -9 25 -18 52 -16 47 -62 113 -72 103 -2
-3 12 -35 31 -72 42 -81 44 -108 10 -126 -14 -7 -25 -17 -25 -22 0 -12 3 -11
65 26 31 19 97 52 147 73 57 24 83 39 70 41 -14 2 -22 13 -27 39 -3 19 -16 56
-28 82 -23 48 -57 93 -57 74z"/>
<path d="M2973 3062 c-18 -37 -46 -83 -62 -102 -40 -46 -30 -52 15 -9 34 33
94 139 94 166 0 28 -16 9 -47 -55z"/>
<path d="M3140 3068 c-17 -57 -56 -134 -81 -159 -28 -28 -18 -34 14 -9 44 35
119 210 90 210 -5 0 -16 -19 -23 -42z"/>
<path d="M3249 3075 c-1 -12 -4 -32 -13 -100 -7 -46 -6 -48 8 -31 20 25 31 99
17 123 -6 10 -11 14 -12 8z"/>
<path d="M1660 2942 c0 -4 16 -24 36 -43 19 -18 49 -56 67 -83 35 -55 49 -48
18 11 -32 61 -121 146 -121 115z"/>
<path d="M2652 2859 c-12 -12 -22 -33 -22 -46 0 -15 -6 -23 -17 -23 -10 0 -35
-5 -55 -11 -36 -9 -38 -12 -38 -49 0 -45 4 -46 71 -26 46 14 48 14 70 -11 27
-29 70 -53 95 -53 26 0 81 62 94 108 11 35 11 45 -4 66 -21 34 -66 56 -125 63
-41 5 -51 2 -69 -18z"/>
<path d="M2260 2810 c6 -11 17 -20 25 -20 20 0 19 10 -2 26 -26 19 -35 17 -23
-6z"/>
<path d="M2920 2816 c0 -8 5 -18 10 -21 6 -3 10 3 10 14 0 12 -4 21 -10 21 -5
0 -10 -6 -10 -14z"/>
<path d="M2962 2770 c0 -19 2 -27 5 -17 2 9 2 25 0 35 -3 9 -5 1 -5 -18z"/>
<path d="M2243 2746 c27 -25 57 -34 57 -18 0 6 -26 20 -75 39 -5 3 3 -7 18
-21z"/>
<path d="M2920 2750 c0 -5 5 -10 10 -10 6 0 10 5 10 10 0 6 -4 10 -10 10 -5 0
-10 -4 -10 -10z"/>
<path d="M1891 2694 c-23 -26 -41 -54 -41 -62 0 -10 3 -12 8 -6 55 64 92 114
84 114 -6 0 -29 -21 -51 -46z"/>
<path d="M2322 2707 c-6 -7 -12 -46 -14 -87 l-3 -75 28 -3 c25 -3 27 0 27 30
1 18 7 59 14 91 l14 57 -28 0 c-15 0 -32 -6 -38 -13z"/>
<path d="M2850 2689 c-9 -16 -8 -26 5 -45 8 -13 20 -24 25 -24 5 0 17 -13 26
-29 19 -32 38 -31 55 1 9 17 4 27 -37 69 -27 27 -52 49 -56 49 -4 0 -12 -9
-18 -21z"/>
<path d="M1910 2675 c-7 -9 -11 -18 -8 -20 3 -3 11 1 18 10 7 9 11 18 8 20 -3
3 -11 -1 -18 -10z"/>
<path d="M3040 2675 c0 -21 -35 -88 -54 -104 -9 -8 -16 -18 -16 -24 0 -6 15 3
33 21 18 18 38 32 45 32 7 0 12 7 12 16 0 8 -4 13 -8 10 -4 -2 -6 11 -4 30 2
19 1 34 -2 34 -3 0 -6 -7 -6 -15z"/>
<path d="M2720 2570 c0 -5 15 -10 33 -11 25 0 28 -2 13 -8 -23 -9 -15 -15 37
-29 40 -11 43 2 3 18 -20 8 -20 9 -1 10 18 1 17 2 -5 15 -29 17 -80 20 -80 5z"/>
<path d="M2688 2489 c5 -13 14 -25 20 -27 8 -2 9 3 4 19 -5 13 -14 25 -20 27
-8 2 -9 -3 -4 -19z"/>
<path d="M2616 2463 c-9 -10 -7 -43 3 -43 11 0 21 39 11 45 -4 2 -10 2 -14 -2z"/>
<path d="M2401 2424 c-32 -41 -65 -164 -43 -164 4 0 13 28 19 62 7 34 22 75
33 91 28 37 19 47 -9 11z"/>
<path d="M2235 2380 c-16 -17 -24 -30 -19 -30 13 0 59 48 52 55 -2 3 -17 -9
-33 -25z"/>
<path d="M2338 2364 c-5 -4 -8 -19 -8 -33 0 -18 3 -22 11 -14 6 6 9 21 7 33
-1 12 -6 18 -10 14z"/>
<path d="M2370 2151 c7 -14 6 -21 -3 -24 -9 -4 -9 -7 1 -18 10 -11 12 -11 12
2 1 7 9 -2 20 -21 11 -19 19 -29 20 -21 0 21 -40 101 -51 101 -6 0 -6 -8 1
-19z"/>
<path d="M3410 1808 c-13 -17 -51 -44 -85 -59 -33 -15 -51 -28 -40 -28 49 -1
155 71 155 105 0 19 -1 18 -30 -18z"/>
<path d="M3310 1774 c-41 -21 -42 -23 -18 -24 15 0 39 11 55 25 34 30 22 30
-37 -1z"/>
<path d="M2905 1780 c3 -5 15 -10 25 -10 10 0 22 5 25 10 4 6 -7 10 -25 10
-18 0 -29 -4 -25 -10z"/>
<path d="M2172 1737 c-37 -40 -27 -177 13 -177 28 0 44 56 38 130 -6 76 -16
85 -51 47z"/>
<path d="M2880 1736 c0 -9 7 -19 15 -23 25 -9 27 2 5 22 -18 17 -20 17 -20 1z"/>
<path d="M3630 1732 c0 -11 33 -22 66 -22 11 0 42 -11 67 -24 44 -22 73 -21
44 2 -42 33 -177 67 -177 44z"/>
<path d="M1472 1688 c4 -24 4 -25 -21 -12 -34 18 -73 18 -118 -1 -49 -20 -35
-30 22 -16 32 8 57 9 83 1 36 -9 38 -12 65 -99 26 -83 117 -251 136 -251 5 0
-15 43 -44 95 -51 92 -105 234 -105 274 0 11 -5 23 -11 27 -8 5 -10 -1 -7 -18z"/>
<path d="M3547 1680 c-3 -8 -17 -55 -32 -105 -15 -49 -47 -128 -71 -174 -45
-86 -53 -115 -16 -64 60 85 143 307 129 346 -3 8 -6 8 -10 -3z"/>
<path d="M3660 1681 c0 -5 14 -14 30 -20 37 -13 41 5 4 19 -31 12 -34 12 -34
1z"/>
<path d="M1620 1657 c0 -12 7 -33 16 -45 13 -19 24 -22 84 -22 63 0 71 2 86
25 31 47 18 55 -88 61 -97 4 -98 4 -98 -19z"/>
<path d="M3232 1671 c-23 -4 -46 -12 -51 -17 -4 -5 -5 -52 -2 -105 6 -90 8
-99 44 -150 35 -51 80 -89 106 -89 25 0 89 85 101 136 12 48 11 56 -10 98 -22
47 -60 76 -99 76 -13 0 -21 9 -26 30 -4 17 -10 29 -13 29 -4 -1 -26 -5 -50 -8z"/>
<path d="M2905 1660 c-3 -5 0 -22 7 -36 12 -24 18 -26 88 -27 74 -2 75 -2 78
24 3 25 0 26 -67 37 -85 15 -98 15 -106 2z"/>
<path d="M2078 1635 c-2 -3 -38 -14 -79 -24 -71 -18 -72 -19 -31 -20 42 -1
106 21 118 40 6 10 1 12 -8 4z"/>
<path d="M1288 1577 c-36 -17 -68 -47 -68 -65 0 -12 5 -11 23 5 27 25 81 53
102 53 8 0 15 5 15 10 0 13 -38 11 -72 -3z"/>
<path d="M3091 1570 c-15 -13 -31 -18 -47 -14 -31 8 -55 -2 -48 -19 10 -26
115 5 128 38 7 20 -4 18 -33 -5z"/>
<path d="M1995 1570 c-4 -6 7 -10 27 -9 27 0 30 2 13 9 -27 12 -33 12 -40 0z"/>
<path d="M3560 1566 c0 -2 33 -20 73 -39 80 -40 92 -49 125 -91 l23 -29 -3 31
c-1 17 -4 29 -6 27 -3 -2 -25 13 -49 35 -24 21 -65 46 -90 54 -45 16 -73 20
-73 12z"/>
<path d="M2333 1539 c-6 -6 -26 -15 -45 -19 -26 -6 -29 -9 -15 -15 24 -10 64
2 71 21 8 21 3 27 -11 13z"/>
<path d="M3560 1523 c0 -10 102 -64 108 -58 6 6 -17 34 -37 44 -26 13 -71 22
-71 14z"/>
<path d="M3128 1514 c-12 -11 -8 -54 7 -94 10 -25 14 -29 15 -15 1 19 2 19 12
-2 17 -35 30 -27 15 8 -7 17 -17 29 -22 27 -6 -1 -12 17 -15 40 -3 24 -8 40
-12 36z"/>
<path d="M1125 1439 c-102 -24 -203 -60 -220 -79 -15 -16 -17 -31 -13 -90 9
-123 49 -140 315 -137 152 2 170 4 158 17 -18 22 -64 112 -106 210 -40 94 -48
99 -134 79z"/>
<path d="M1395 1386 c-37 -16 -95 -64 -95 -78 0 -6 9 -3 20 7 11 10 20 14 20
9 0 -5 4 -4 8 2 9 14 82 54 99 54 7 0 13 5 13 10 0 14 -29 12 -65 -4z"/>
<path d="M2322 1363 l-19 -26 -31 18 c-27 17 -34 17 -57 5 -45 -24 -145 -195
-145 -247 1 -54 122 -153 188 -153 87 0 158 160 117 266 l-17 45 28 40 c29 42
27 48 -18 67 -24 10 -29 8 -46 -15z"/>
<path d="M3200 1325 c0 -9 80 -58 86 -52 3 3 -12 17 -33 31 -36 25 -53 32 -53
21z"/>
<path d="M1997 1130 c-3 -11 -1 -22 3 -25 5 -3 11 5 13 17 2 13 5 4 6 -20 1
-45 24 -102 42 -102 6 0 5 9 -3 23 -6 12 -17 44 -23 71 -12 53 -29 70 -38 36z"/>
<path d="M1661 1076 c-19 -20 -21 -26 -9 -26 19 0 41 25 36 40 -2 6 -14 0 -27
-14z"/>
<path d="M2409 1069 c-12 -23 -12 -42 1 -34 6 3 10 3 10 -1 0 -12 -44 -74 -52
-74 -5 0 -8 -5 -8 -10 0 -19 49 24 63 55 25 51 29 82 11 82 -8 0 -19 -8 -25
-18z"/>
<path d="M1701 1020 c-17 -22 -38 -40 -46 -40 -8 0 -15 -5 -15 -10 0 -6 -16
-20 -37 -32 -20 -12 -31 -24 -25 -26 21 -7 99 46 136 92 20 23 36 46 36 50 0
16 -19 3 -49 -34z"/>
<path d="M1916 1021 c-3 -5 1 -12 10 -15 9 -3 12 -11 8 -18 -4 -7 -4 -10 0 -7
4 4 37 -8 72 -27 87 -45 116 -43 34 2 -36 20 -77 45 -92 55 -15 11 -29 15 -32
10z"/>
<path d="M1818 918 c-37 -58 -60 -148 -38 -148 6 0 10 7 10 15 0 8 12 44 26
80 27 68 28 93 2 53z"/>
<path d="M4520 657 l0 -193 -82 -40 -82 -41 91 -16 c100 -19 314 -84 394 -122
29 -13 55 -23 57 -21 2 2 -43 79 -99 171 l-101 168 23 19 c13 10 59 42 101 71
43 28 77 55 78 58 0 11 -209 90 -312 119 l-68 19 0 -192z"/>
<path d="M870 696 c0 -31 -9 -32 -61 -5 -26 13 -38 15 -33 7 4 -7 52 -80 106
-161 l99 -148 -47 -42 c-26 -23 -74 -63 -107 -89 l-59 -48 67 -30 c91 -41 271
-97 386 -120 51 -10 95 -18 96 -16 1 1 -34 32 -77 69 l-80 68 0 194 0 194 -47
13 -48 14 -3 50 -3 51 -57 7 c-31 3 -74 9 -94 12 -36 6 -38 5 -38 -20z"/>
<path d="M445 689 c5 -8 49 -74 97 -147 49 -73 91 -139 94 -146 3 -9 -34 -46
-95 -97 -56 -46 -101 -86 -101 -89 0 -9 210 -88 305 -115 50 -14 123 -31 164
-39 l75 -14 -34 28 c-19 16 -53 33 -75 40 -71 21 -246 93 -243 100 2 4 45 42
96 84 66 55 92 83 92 99 0 12 -29 65 -64 118 -56 84 -69 97 -105 107 -33 10
-116 43 -200 79 -10 5 -12 2 -6 -8z"/>
<path d="M4059 544 c77 -14 88 -13 76 5 -3 6 -37 11 -78 10 l-72 -1 74 -14z"/>
</g>
</svg>
